<svg width="50" height="50" viewBox="0 0 50 50" fill="none" xmlns="http://www.w3.org/2000/svg">
<rect width="50" height="50" rx="5" fill="#C4C4C4"/>
<path fill-rule="evenodd" clip-rule="evenodd" d="M26.1111 20C26.1111 14.4771 21.6091 10 16.0556 10C10.502 10 6 14.4771 6 20V40H11.0278C19.358 40 26.1111 33.2842 26.1111 25V20ZM16.0556 12C11.6128 12 8.01113 15.5818 8.01113 20C8.01113 24.4183 11.6128 28 16.0556 28C20.4984 28 24.1 24.4183 24.1 20C24.1 15.5818 20.4984 12 16.0556 12Z" fill="#707070"/>
<path fill-rule="evenodd" clip-rule="evenodd" d="M26.1111 10H6C6 13.1915 6.75169 16.2084 8.08861 18.8852C8.63409 14.9946 11.9932 12 16.0556 12C20.4984 12 24.1 15.5817 24.1 20C24.1 24.04 21.0888 27.3805 17.1766 27.9229C19.8682 29.2524 22.9019 30 26.1111 30H46.2222C46.2222 18.9543 37.2182 10 26.1111 10Z" fill="#434343"/>
<path d="M7.60862 20.4C7.60862 25.0392 11.3903 28.8 16.0553 28.8C20.7203 28.8 24.502 25.0392 24.502 20.4C24.502 15.7608 20.7203 12 16.0553 12C11.3903 12 7.60862 15.7608 7.60862 20.4Z" fill="#C4C4C4"/>
<path fill-rule="evenodd" clip-rule="evenodd" d="M11.0278 20C11.0278 22.7614 13.2788 25 16.0556 25C18.8324 25 21.0834 22.7614 21.0834 20C21.0834 19.5296 21.0181 19.0743 20.896 18.6427C20.6009 18.9839 20.1636 19.2 19.6756 19.2C18.787 19.2 18.0667 18.4836 18.0667 17.6C18.0667 16.8899 18.5318 16.288 19.1754 16.0788C18.3182 15.4034 17.2343 15 16.0556 15C13.2788 15 11.0278 17.2386 11.0278 20Z" fill="#434343"/>
</svg>
